<svg width="96" height="96" viewBox="0 0 96 96" fill="none" xmlns="http://www.w3.org/2000/svg">
<circle cx="47.9997" cy="48" r="39.9997" fill="white"/>
<path d="M81.936 14.0537C63.1881 -4.68855 32.796 -4.68405 14.0537 14.0641C-4.68855 32.8122 -4.68405 63.204 14.0641 81.9463C32.8122 100.689 63.204 100.684 81.9463 81.936C90.9474 72.9321 96.0028 60.7212 96 47.9897C95.9974 35.2604 90.9384 23.0534 81.936 14.0537ZM72.6943 66.8635C72.6923 66.8655 72.6902 66.8678 72.688 66.8698V66.8539L70.2559 69.2698C67.1106 72.4549 62.5298 73.7653 58.1758 72.7258C53.7893 71.5517 49.6193 69.6827 45.8239 67.1899C42.2978 64.9363 39.03 62.302 36.0799 59.3338C33.3655 56.6393 30.9269 53.6805 28.7999 50.5018C26.4734 47.0815 24.6319 43.3555 23.3279 39.4298C21.8329 34.818 23.0717 29.7576 26.5279 26.3579L29.3759 23.5099C30.1677 22.7146 31.4543 22.7117 32.2495 23.5036C32.2515 23.5056 32.2538 23.5077 32.2559 23.5099L41.2478 32.5019C42.0432 33.2937 42.046 34.5803 41.2542 35.3755C41.2521 35.3775 41.25 35.3796 41.2478 35.3819L35.9678 40.6619C34.4528 42.1604 34.2623 44.5416 35.5199 46.2619C37.4295 48.8828 39.5429 51.349 41.8399 53.638C44.401 56.2101 47.1852 58.5499 50.1598 60.63C51.8787 61.8289 54.2089 61.6268 55.6958 60.15L60.7997 54.966C61.5915 54.1707 62.8782 54.1678 63.6733 54.9597C63.6754 54.9617 63.6775 54.9638 63.6797 54.966L72.6878 63.99C73.4833 64.7816 73.4861 66.0681 72.6943 66.8635Z" fill="#FA9000"/>
</svg>
