<svg width="43" height="43" viewBox="0 0 43 43" fill="none" xmlns="http://www.w3.org/2000/svg">
<path d="M21.6624 42.6763C33.4471 42.6763 43.0005 33.1229 43.0005 21.3382C43.0005 9.55342 33.4471 0 21.6624 0C9.87763 0 0.324219 9.55342 0.324219 21.3382C0.324219 33.1229 9.87763 42.6763 21.6624 42.6763Z" fill="#4D76A1"/>
<path fill-rule="evenodd" clip-rule="evenodd" d="M20.8559 30.6968H22.5307C22.5307 30.6968 23.0366 30.6413 23.2948 30.3629C23.5326 30.1072 23.525 29.6272 23.525 29.6272C23.525 29.6272 23.4923 27.38 24.5352 27.049C25.5634 26.7231 26.8837 29.221 28.2831 30.1814C29.3412 30.9083 30.1454 30.7489 30.1454 30.7489L33.8871 30.6968C33.8871 30.6968 35.8445 30.5762 34.9164 29.0373C34.8403 28.9114 34.3759 27.8988 32.1343 25.8182C29.7882 23.6405 30.1024 23.9928 32.9285 20.2259C34.6497 17.9319 35.3378 16.5314 35.1229 15.9315C34.9179 15.3602 33.652 15.5112 33.652 15.5112L29.439 15.5375C29.439 15.5375 29.1267 15.4948 28.8951 15.6333C28.6688 15.7691 28.5231 16.0856 28.5231 16.0856C28.5231 16.0856 27.8563 17.8608 26.967 19.3705C25.091 22.5561 24.3409 22.7242 24.0343 22.5264C23.3211 22.0654 23.4991 20.6744 23.4991 19.6862C23.4991 16.5991 23.9673 15.3119 22.5873 14.9787C22.1294 14.868 21.7924 14.795 20.6212 14.7832C19.118 14.7676 17.8456 14.7877 17.1252 15.1407C16.6459 15.3754 16.2762 15.8984 16.5014 15.9285C16.7798 15.9658 17.4105 16.0985 17.7448 16.5538C18.1765 17.1411 18.1613 18.4602 18.1613 18.4602C18.1613 18.4602 18.4093 22.0943 17.582 22.5458C17.0141 22.8554 16.2351 22.2233 14.5626 19.3332C13.7056 17.8528 13.0586 16.2164 13.0586 16.2164C13.0586 16.2164 12.9339 15.9106 12.7114 15.747C12.4413 15.5489 12.064 15.4857 12.064 15.4857L8.06053 15.512C8.06053 15.512 7.45954 15.5287 7.23893 15.79C7.04266 16.0224 7.22333 16.5032 7.22333 16.5032C7.22333 16.5032 10.3576 23.836 13.9065 27.5314C17.1606 30.9193 20.8559 30.6968 20.8559 30.6968Z" fill="white"/>
</svg>
