<svg width="40" height="41" viewBox="0 0 40 41" fill="none" xmlns="http://www.w3.org/2000/svg">
<path d="M2.60053 3.62437C-0.523372 6.86918 0.115984 10.3161 0.115984 20.7876C0.115984 29.4835 -1.40125 38.201 6.53937 40.2532C9.01894 40.8909 30.989 40.8909 33.4652 40.2499C36.7713 39.3969 39.4613 36.7152 39.829 32.0393C39.8803 31.3867 39.8803 10.2001 39.8273 9.53428C39.4364 4.55359 36.3705 1.68311 32.3306 1.10172C31.4047 0.967557 31.2192 0.927804 26.4687 0.919522C9.61855 0.927804 5.92486 0.177471 2.60053 3.62437Z" fill="url(#paint0_linear_94_1570)"/>
<path d="M19.9893 6.1189C13.9751 6.1189 8.26393 5.5839 6.0825 11.1824C5.18144 13.4947 5.31229 16.4977 5.31229 20.7976C5.31229 24.5708 5.19138 28.1171 6.0825 30.4111C8.25897 36.013 14.0165 35.4763 19.986 35.4763C25.7452 35.4763 31.6833 36.0759 33.8912 30.4111C34.7939 28.0757 34.6614 25.1174 34.6614 20.7976C34.6614 15.0633 34.9778 11.3613 32.1967 8.58192C29.3809 5.7661 25.5729 6.1189 19.9827 6.1189H19.9893ZM18.6742 8.76412C31.2195 8.74424 32.8162 7.34958 31.935 26.7241C31.622 33.5765 26.4044 32.8245 19.991 32.8245C8.29706 32.8245 7.96082 32.4899 7.96082 20.791C7.96082 8.95625 8.88838 8.77074 18.6742 8.7608V8.76412ZM27.8239 11.2006C26.8517 11.2006 26.0632 11.9891 26.0632 12.9613C26.0632 13.9336 26.8517 14.7221 27.8239 14.7221C28.7962 14.7221 29.5847 13.9336 29.5847 12.9613C29.5847 11.9891 28.7962 11.2006 27.8239 11.2006ZM19.9893 13.2595C15.8269 13.2595 12.4529 16.6352 12.4529 20.7976C12.4529 24.9601 15.8269 28.3341 19.9893 28.3341C24.1518 28.3341 27.5241 24.9601 27.5241 20.7976C27.5241 16.6352 24.1518 13.2595 19.9893 13.2595ZM19.9893 15.9047C26.4574 15.9047 26.4657 25.6905 19.9893 25.6905C13.5229 25.6905 13.513 15.9047 19.9893 15.9047Z" fill="white"/>
<defs>
<linearGradient id="paint0_linear_94_1570" x1="2.67676" y1="38.1332" x2="39.6227" y2="6.15691" gradientUnits="userSpaceOnUse">
<stop stop-color="#FFDD55"/>
<stop offset="0.5" stop-color="#FF543E"/>
<stop offset="1" stop-color="#C837AB"/>
</linearGradient>
</defs>
</svg>
