<svg width="255" height="34" viewBox="0 0 255 34" fill="none" xmlns="http://www.w3.org/2000/svg">
<path d="M27.4728 6.01677H17.2403L12.1729 31.7306H4.9278L10.0091 6.01677H0L1.17262 0.0419922H28.6454L27.4728 6.01677Z" fill="black"/>
<path d="M39.3808 5.93297L38.0267 12.8151H52.7403L51.6096 18.5247H36.8401L35.3883 25.8535H52.6845L51.456 31.7446H26.9287L33.2664 0.0559082H57.2074L55.979 5.94693H39.3808V5.93297Z" fill="black"/>
<path d="M134 0.0419922L127.662 31.7306H120.417L125.442 6.01677H111.147L106.08 31.7306H98.835L105.173 0.0419922H134Z" fill="black"/>
<path d="M66.1699 0.0418793L72.1587 0L77.924 19.7949L93.4054 0H99.7152L93.4054 31.7864H86.5512L90.3203 12.843L78.1474 28.4221H74.8389L66.1699 0.0418793Z" fill="black"/>
<path d="M67.8576 15.7047H64.4095L72.1712 0H65.8753L57.3738 19.2365H61.4919L57.0527 33.3917L67.8576 15.7047Z" fill="#3FB1B5"/>
<path d="M150.512 13.156C153.281 13.156 155.166 10.959 155.166 8.45C155.166 5.915 153.307 3.744 150.538 3.744C147.769 3.744 145.884 5.941 145.884 8.45C145.884 10.985 147.743 13.156 150.512 13.156ZM150.538 12.207C148.458 12.207 146.95 10.517 146.95 8.45C146.95 6.357 148.432 4.693 150.512 4.693C152.592 4.693 154.1 6.383 154.1 8.45C154.1 10.543 152.618 12.207 150.538 12.207ZM157.163 13H158.164V10.062H162.038V13H163.039V6.279H162.038V9.178H158.164V6.279H157.163V13ZM164.95 13.104C166.224 13.104 167.173 12.558 167.173 7.319V7.163H169.981V13H170.982V6.279H166.224V6.838C166.224 11.882 165.548 12.233 164.742 12.233C164.625 12.233 164.391 12.181 164.261 12.142L164.144 13C164.352 13.052 164.729 13.104 164.95 13.104ZM175.224 13.143C176.407 13.143 177.174 12.597 177.642 11.999V13H178.63V8.892C178.63 8.034 178.396 7.384 177.928 6.916C177.447 6.435 176.706 6.175 175.757 6.175C174.769 6.175 174.054 6.409 173.313 6.747L173.612 7.566C174.236 7.28 174.86 7.085 175.653 7.085C176.914 7.085 177.642 7.709 177.642 8.905V9.113C177.044 8.944 176.446 8.827 175.588 8.827C173.885 8.827 172.715 9.581 172.715 11.024C172.715 12.428 173.963 13.143 175.224 13.143ZM175.419 12.337C174.509 12.337 173.729 11.843 173.729 10.998C173.729 10.166 174.444 9.62 175.692 9.62C176.511 9.62 177.161 9.763 177.655 9.906V10.53C177.655 11.596 176.654 12.337 175.419 12.337ZM180.751 13H181.713L185.717 7.683V13H186.718V6.279H185.743L181.752 11.596V6.279H180.751V13ZM183.702 5.317C184.677 5.317 185.379 4.654 185.535 3.731L184.846 3.588C184.69 4.147 184.339 4.498 183.702 4.498C183.065 4.498 182.714 4.147 182.558 3.588L181.869 3.731C182.025 4.654 182.727 5.317 183.702 5.317ZM188.952 13H189.953V10.062H193.827V13H194.828V6.279H193.827V9.178H189.953V6.279H188.952V13ZM196.791 9.62H200.405V8.567H196.791V9.62ZM202.371 13H203.372V11.375L204.789 9.919L207.181 13H208.364L205.478 9.191L208.286 6.279H207.051L203.372 10.153V6.279H202.371V13ZM210.787 15.119C211.801 15.119 212.451 14.612 213.023 13.221L215.844 6.279H214.778L212.62 11.882L210.176 6.279H209.071L212.126 12.974C211.723 13.923 211.346 14.235 210.748 14.235C210.319 14.235 210.02 14.157 209.695 13.988L209.357 14.781C209.812 15.002 210.228 15.119 210.787 15.119ZM217.428 15.08H218.429V11.713C218.949 12.467 219.755 13.143 221.003 13.143C222.628 13.143 224.214 11.843 224.214 9.646C224.214 7.41 222.615 6.136 221.003 6.136C219.768 6.136 218.975 6.825 218.429 7.631V6.279H217.428V15.08ZM220.821 12.246C219.573 12.246 218.39 11.206 218.39 9.646C218.39 8.086 219.573 7.033 220.821 7.033C222.095 7.033 223.187 8.047 223.187 9.633C223.187 11.284 222.121 12.246 220.821 12.246ZM229.089 13.156C230.35 13.156 231.156 12.61 231.832 11.856L231.169 11.245C230.636 11.817 229.999 12.259 229.141 12.259C227.737 12.259 226.671 11.102 226.671 9.646C226.671 8.177 227.711 7.02 229.076 7.02C229.986 7.02 230.61 7.449 231.143 8.008L231.78 7.332C231.156 6.669 230.363 6.136 229.089 6.136C227.126 6.136 225.644 7.748 225.644 9.646C225.644 11.557 227.126 13.156 229.089 13.156ZM233.487 13H236.399C237.933 13 238.934 12.155 238.934 10.816C238.934 9.399 237.738 8.801 236.282 8.801H234.488V6.279H233.487V13ZM234.488 12.116V9.659H236.269C237.296 9.659 237.92 10.062 237.92 10.842C237.92 11.687 237.309 12.116 236.308 12.116H234.488ZM240.143 13H241.144V6.279H240.143V13ZM145.13 29.677H145.949L146.131 28H151.565V29.677H152.397L152.553 27.116H151.539V21.279H146.755V22.449C146.755 24.711 146.404 26.115 145.858 27.116H145.13V29.677ZM146.924 27.116C147.392 26.245 147.717 24.763 147.717 23.099V22.163H150.538V27.116H146.924ZM153.601 28.104C154.875 28.104 155.824 27.558 155.824 22.319V22.163H158.632V28H159.633V21.279H154.875V21.838C154.875 26.882 154.199 27.233 153.393 27.233C153.276 27.233 153.042 27.181 152.912 27.142L152.795 28C153.003 28.052 153.38 28.104 153.601 28.104ZM161.275 28H162.51C163.134 27.194 163.745 26.375 164.369 25.556H166.228V28H167.229V21.279H164.07C162.471 21.279 161.535 22.137 161.535 23.372C161.535 24.464 162.328 25.166 163.329 25.4L161.275 28ZM164.148 24.711C163.212 24.711 162.536 24.23 162.536 23.411C162.536 22.644 163.121 22.163 164.122 22.163H166.228V24.711H164.148ZM173.362 28H182.93V21.279H181.916V27.116H178.64V21.279H177.639V27.116H174.363V21.279H173.362V28ZM185.169 28H186.17V26.375L187.587 24.919L189.979 28H191.162L188.276 24.191L191.084 21.279H189.849L186.17 25.153V21.279H185.169V28ZM195.613 28.156C197.641 28.156 199.136 26.544 199.136 24.646C199.136 22.722 197.654 21.136 195.639 21.136C193.611 21.136 192.129 22.748 192.129 24.646C192.129 26.57 193.598 28.156 195.613 28.156ZM195.639 27.259C194.222 27.259 193.156 26.089 193.156 24.646C193.156 23.203 194.157 22.02 195.613 22.02C197.03 22.02 198.109 23.203 198.109 24.646C198.109 26.089 197.095 27.259 195.639 27.259ZM200.624 28.104C201.898 28.104 202.847 27.558 202.847 22.319V22.163H205.655V28H206.656V21.279H201.898V21.838C201.898 26.882 201.222 27.233 200.416 27.233C200.299 27.233 200.065 27.181 199.935 27.142L199.818 28C200.026 28.052 200.403 28.104 200.624 28.104ZM208.896 28H211.808C213.342 28 214.343 27.155 214.343 25.816C214.343 24.399 213.147 23.801 211.691 23.801H209.897V21.279H208.896V28ZM209.897 27.116V24.659H211.678C212.705 24.659 213.329 25.062 213.329 25.842C213.329 26.687 212.718 27.116 211.717 27.116H209.897ZM215.891 28H216.892V25.062H220.766V28H221.767V21.279H220.766V24.178H216.892V21.279H215.891V28ZM224.004 28H224.966L228.97 22.683V28H229.971V21.279H228.996L225.005 26.596V21.279H224.004V28ZM232.205 28H233.206V26.375L234.623 24.919L237.015 28H238.198L235.312 24.191L238.12 21.279H236.885L233.206 25.153V21.279H232.205V28ZM242.649 28.156C244.677 28.156 246.172 26.544 246.172 24.646C246.172 22.722 244.69 21.136 242.675 21.136C240.647 21.136 239.165 22.748 239.165 24.646C239.165 26.57 240.634 28.156 242.649 28.156ZM242.675 27.259C241.258 27.259 240.192 26.089 240.192 24.646C240.192 23.203 241.193 22.02 242.649 22.02C244.066 22.02 245.145 23.203 245.145 24.646C245.145 26.089 244.131 27.259 242.675 27.259ZM247.985 28H251.352C252.834 28 253.796 27.298 253.796 26.167C253.796 25.218 253.12 24.724 252.314 24.503C252.873 24.269 253.432 23.84 253.432 22.956C253.432 21.942 252.574 21.279 251.235 21.279H247.985V28ZM248.986 27.142V24.971H251.092C252.184 24.971 252.769 25.361 252.769 26.011C252.769 26.713 252.184 27.142 251.222 27.142H248.986ZM248.986 24.165V22.137H251.079C251.95 22.137 252.418 22.527 252.418 23.086C252.418 23.788 251.859 24.165 251.053 24.165H248.986Z" fill="black"/>
</svg>
