<svg width="41" height="41" viewBox="0 0 41 41" fill="none" xmlns="http://www.w3.org/2000/svg">
<path d="M20.232 41C15.4415 41 10.7952 39.2732 7.14894 36.1376C6.29279 35.4018 5.48968 34.5861 4.76211 33.7132C1.69103 30.0248 0 25.3325 0 20.5C0 15.0242 2.10445 9.8762 5.92577 6.00426C9.74709 2.13232 14.8278 0 20.232 0C25.6363 0 30.717 2.13232 34.5383 6.00426C38.3596 9.8762 40.4641 15.0242 40.4641 20.5C40.4641 25.3326 38.773 30.0249 35.7023 33.7127C34.9744 34.5861 34.1713 35.4018 33.3149 36.1378C29.6688 39.2732 25.0225 41 20.232 41ZM20.232 2.5625C10.4705 2.5625 2.529 10.6092 2.529 20.5C2.529 24.7285 4.00839 28.8341 6.69467 32.0603C7.33166 32.8245 8.03512 33.539 8.78512 34.1837C11.9751 36.9268 16.0403 38.4375 20.232 38.4375C24.4238 38.4375 28.4889 36.9268 31.6787 34.1838C32.4289 33.539 33.1324 32.8244 33.7698 32.0598C36.4557 28.8341 37.935 24.7286 37.935 20.5C37.935 10.6092 29.9935 2.5625 20.232 2.5625Z" fill="black"/>
<path d="M20.2315 20.5C16.048 20.5 12.6445 17.0514 12.6445 12.8125C12.6445 8.57356 16.048 5.125 20.2315 5.125C24.4151 5.125 27.8186 8.57356 27.8186 12.8125C27.8186 17.0514 24.4151 20.5 20.2315 20.5ZM20.2315 7.6875C17.4425 7.6875 15.1735 9.98654 15.1735 12.8125C15.1735 15.6385 17.4425 17.9375 20.2315 17.9375C23.0206 17.9375 25.2895 15.6385 25.2895 12.8125C25.2895 9.98654 23.0206 7.6875 20.2315 7.6875Z" fill="black"/>
<path d="M32.4976 36.4423C32.3957 36.4423 32.2921 36.4297 32.1888 36.4034C31.5115 36.2312 31.1002 35.5352 31.2702 34.8488C31.4972 33.9325 31.6123 32.9845 31.6123 32.0313C31.6123 25.7623 26.5823 20.5908 20.3983 20.5008L20.2318 20.5L20.0653 20.5008C13.8813 20.5908 8.85127 25.7623 8.85127 32.0313C8.85127 32.9845 8.96642 33.9325 9.1934 34.8488C9.36339 35.5352 8.95211 36.2312 8.27481 36.4034C7.59752 36.5757 6.9105 36.159 6.7405 35.4727C6.46294 34.3525 6.32227 33.1946 6.32227 32.0313C6.32227 28.3014 7.74617 24.7855 10.3317 22.1312C12.9147 19.4795 16.3606 17.9905 20.0347 17.9385C20.0406 17.9384 20.0465 17.9384 20.0524 17.9384L20.2318 17.9375L20.4112 17.9383C20.4171 17.9383 20.423 17.9383 20.4289 17.9384C24.103 17.9904 27.5489 19.4794 30.1319 22.1311C32.7174 24.7855 34.1413 28.3014 34.1413 32.0313C34.1413 33.1946 34.0006 34.3525 33.7231 35.4727C33.579 36.0542 33.0637 36.4422 32.4976 36.4423Z" fill="black"/>
</svg>
