<svg width="78" height="78" viewBox="0 0 78 78" fill="none" xmlns="http://www.w3.org/2000/svg">
<path d="M39 78C28.5827 78 18.789 73.9432 11.4227 66.5773C4.05676 59.211 0 49.4173 0 39C0 28.5827 4.05676 18.789 11.4227 11.4227C18.789 4.05676 28.5827 0 39 0C49.4173 0 59.211 4.05676 66.5773 11.4227C73.9432 18.789 78 28.5827 78 39C78 49.4173 73.9432 59.211 66.5773 66.5773C59.211 73.9432 49.4173 78 39 78ZM39 6.09375C20.8554 6.09375 6.09375 20.8554 6.09375 39C6.09375 57.1446 20.8554 71.9062 39 71.9062C57.1446 71.9062 71.9062 57.1446 71.9062 39C71.9062 20.8554 57.1446 6.09375 39 6.09375ZM25.1367 59.4997V18.5003L60.8062 39L25.1367 59.4997ZM31.2305 29.0309V48.9692L48.5766 39L31.2305 29.0309Z" fill="url(#paint0_linear_149_314)"/>
<defs>
<linearGradient id="paint0_linear_149_314" x1="72" y1="21" x2="19" y2="65.5" gradientUnits="userSpaceOnUse">
<stop offset="0.125" stop-color="#FFC981"/>
<stop offset="1" stop-color="#52C5C9"/>
</linearGradient>
</defs>
</svg>
